# xmcd CD database file
#
# Track frame offsets:
#	150
#	12726
#	25374
#	36988
#	48567
#	62126
#	74050
#	87036
#	109725
#	124396
#	135531
#	150489
#	161173
#	173915
#	187762
#
# Disc length: 2637 seconds
#
# Revision: 1
# Processed by: cddbd v1.4PL0 Copyright (c) Steve Scherf et al.
# Submitted via: CDex 1.40Release
#
DISCID=d40a4b0f
DTITLE=Elmore James - The Sky Is Crying
DYEAR=1900
DGENRE=Blues
TTITLE0=Dust My Broom
TTITLE1=The Sky Is Crying
TTITLE2=Fine Little Mama
TTITLE3=Shake Your Money Maker
TTITLE4=Anne Lee
TTITLE5=Mean Mistreatin' Mama
TTITLE6=Baby Please Set A Date
TTITLE7=Something Inside Me
TTITLE8=Stranger Blues
TTITLE9=Look On Yonder Wall
TTITLE10=It Hurts Me Too
TTITLE11=Done Somebody Wrong
TTITLE12=Make My Dreams Come True
TTITLE13=Bleeding Heart
TTITLE14=Go Back Home Again
EXTD=ID3G: 0
EXTT0=
EXTT1=
EXTT2=
EXTT3=
EXTT4=
EXTT5=
EXTT6=
EXTT7=
EXTT8=
EXTT9=
EXTT10=
EXTT11=
EXTT12=
EXTT13=
EXTT14=
PLAYORDER=
